<?xml version="1.0" encoding="utf-8"?>
<!-- Generator: Adobe Illustrator 21.1.0, SVG Export Plug-In . SVG Version: 6.00 Build 0)  -->
<svg version="1.1" class="logo" xmlns="http://www.w3.org/2000/svg" xmlns:xlink="http://www.w3.org/1999/xlink" x="0px" y="0px"
	 viewBox="0 0 232 39" style="enable-background:new 0 0 232 39;" xml:space="preserve">
<polygon points="28.6,0.6 18.8,16.6 8.9,0.6 0,0.6 0,38.4 8.1,38.4 8.1,13.9 18.6,29.8 18.8,29.8 29.3,13.7 29.3,38.4 37.5,38.4 
	37.5,0.6 "/>
<polygon points="223.9,0.6 223.9,25.1 213.4,9.2 213.2,9.2 202.7,25.3 202.7,0.6 194.5,0.6 194.5,38.4 203.4,38.4 213.2,22.4 
	223.1,38.4 232,38.4 232,0.6 "/>
<path d="M60.4,39c-11.6,0-19.9-8.7-19.9-19.4v-0.1C40.5,8.8,48.9,0,60.5,0c11.6,0,19.9,8.7,19.9,19.4v0.1C80.4,30.2,71.9,39,60.4,39
	 M71.7,19.5C71.7,13,67,7.6,60.4,7.6c-6.7,0-11.3,5.3-11.3,11.7v0.1c0,6.5,4.7,11.9,11.4,11.9c6.7,0,11.3-5.3,11.3-11.7V19.5z"/>
<path d="M106.1,38.4l-8-12.1h-6.5v12.1h-8.3V0.6h17.2c8.9,0,14.2,4.7,14.2,12.4v0.1c0,6.1-3.3,9.9-8,11.7l9.2,13.5H106.1z
	 M106.2,13.5c0-3.6-2.5-5.4-6.5-5.4h-8.2V19h8.4c4,0,6.3-2.2,6.3-5.3V13.5z"/>
<path d="M141.1,38.4l-8-12.1h-6.5v12.1h-8.3V0.6h17.2c8.9,0,14.2,4.7,14.2,12.4v0.1c0,6.1-3.3,9.9-8,11.7l9.2,13.5H141.1z
	 M141.3,13.5c0-3.6-2.5-5.4-6.5-5.4h-8.2V19h8.4c4,0,6.3-2.2,6.3-5.3V13.5z"/>
<path d="M171.5,39c-11.6,0-19.9-8.7-19.9-19.4v-0.1c0-10.7,8.4-19.5,20-19.5c11.6,0,19.9,8.7,19.9,19.4v0.1
	C191.5,30.2,183.1,39,171.5,39 M182.9,19.5c0-6.5-4.7-11.9-11.4-11.9c-6.7,0-11.3,5.3-11.3,11.7v0.1c0,6.5,4.7,11.9,11.4,11.9
	c6.7,0,11.3-5.3,11.3-11.7V19.5z"/>
</svg>
